<svg xmlns="http://www.w3.org/2000/svg" viewBox="0 0 512 512" width="512" height="512">
  <defs><clipPath id="f"><rect width="512" height="512" rx="96"/></clipPath></defs>
  <g clip-path="url(#f)">
    <rect width="512" height="512" fill="#0E7C6B"/>
    <path d="M86 98 l10 24 24 10 -24 10 -10 24 -10 -24 -24 -10 24 -10z" fill="#FFFFFF" opacity="0.55"/><path d="M436 150 l8 18 18 8 -18 8 -8 18 -8 -18 -18 -8 18 -8z" fill="#FFFFFF" opacity="0.55"/><path d="M410 376 l6 14 14 6 -14 6 -6 14 -6 -14 -14 -6 14 -6z" fill="#FFFFFF" opacity="0.55"/>
    <g stroke="#101010" stroke-width="9" stroke-linejoin="round" stroke-linecap="round">
      
      <path d="M212 372 v46" fill="none"/>
      <path d="M300 372 v46" fill="none"/>
      <ellipse cx="204" cy="428" rx="30" ry="15" fill="#FFD54A"/>
      <ellipse cx="308" cy="428" rx="30" ry="15" fill="#FFD54A"/>
      <path d="M256 92 c 80 0 126 54 126 126 c 0 72 -48 126 -126 126
               c -78 0 -126 -54 -126 -126 c 0 -72 46 -126 126 -126 z" fill="#2BD9A6"/>
      <path d="M170 176 c 10 -36 38 -60 68 -64" fill="none" stroke="#9DF5DC" stroke-width="15"/>
      <path d="M190 200 q 22 -30 44 0" fill="none"/>
      <path d="M280 200 q 22 -30 44 0" fill="none"/>
      <path d="M220 248 q 36 40 72 0" fill="none"/>
      <path d="M150 258 q -26 50 28 68" fill="none" stroke-width="30"/>
      <path d="M362 258 q 26 50 -28 68" fill="none" stroke-width="30"/>
      <path d="M150 258 q -26 50 28 68" fill="none" stroke="#2BD9A6" stroke-width="16"/>
      <path d="M362 258 q 26 50 -28 68" fill="none" stroke="#2BD9A6" stroke-width="16"/>
      <path d="M176 330 h160" fill="none" stroke-width="16"/>
      <rect x="120" y="286" width="58" height="88" rx="16" fill="#FF6B6B"/>
      <rect x="334" y="286" width="58" height="88" rx="16" fill="#FF6B6B"/>
      <rect x="88" y="306" width="34" height="48" rx="11" fill="#FFD54A"/>
      <rect x="390" y="306" width="34" height="48" rx="11" fill="#FFD54A"/>
    </g>
  </g>
</svg>
