<svg xmlns="http://www.w3.org/2000/svg" viewBox="0 0 512 512" width="512" height="512">
  <defs><clipPath id="f"><rect width="512" height="512" rx="96"/></clipPath></defs>
  <g clip-path="url(#f)">
    <rect width="512" height="512" fill="#4C1D95"/>
    <path d="M86 98 l10 24 24 10 -24 10 -10 24 -10 -24 -24 -10 24 -10z" fill="#FFFFFF" opacity="0.55"/><path d="M436 150 l8 18 18 8 -18 8 -8 18 -8 -18 -18 -8 18 -8z" fill="#FFFFFF" opacity="0.55"/><path d="M410 376 l6 14 14 6 -14 6 -6 14 -6 -14 -14 -6 14 -6z" fill="#FFFFFF" opacity="0.55"/>
    <g stroke="#101010" stroke-width="9" stroke-linejoin="round" stroke-linecap="round">
      
      <path d="M212 372 v46" fill="none"/>
      <path d="M300 372 v46" fill="none"/>
      <ellipse cx="204" cy="428" rx="30" ry="15" fill="#FF7BA8"/>
      <ellipse cx="308" cy="428" rx="30" ry="15" fill="#FF7BA8"/>
      <path d="M256 92 c 80 0 126 54 126 126 c 0 72 -48 126 -126 126
               c -78 0 -126 -54 -126 -126 c 0 -72 46 -126 126 -126 z" fill="#9DE04F"/>
      <path d="M170 176 c 10 -36 38 -60 68 -64" fill="none" stroke="#D6F5AE" stroke-width="15"/>
      <circle cx="212" cy="192" r="33" fill="#FFFFFF"/>
      <circle cx="302" cy="192" r="33" fill="#FFFFFF"/>
      <circle cx="216" cy="196" r="13" fill="#101010" stroke="none"/>
      <circle cx="306" cy="196" r="13" fill="#101010" stroke="none"/>
      <path d="M224 250 q 32 34 64 0" fill="none"/>
      <path d="M146 250 q -46 -18 -54 -64" fill="none" stroke-width="30"/>
      <path d="M366 262 q 34 30 22 74" fill="none" stroke-width="30"/>
      <path d="M146 250 q -46 -18 -54 -64" fill="none" stroke="#9DE04F" stroke-width="16"/>
      <path d="M366 262 q 34 30 22 74" fill="none" stroke="#9DE04F" stroke-width="16"/>
      <circle cx="92" cy="186" r="17" fill="#9DE04F"/>
      <circle cx="388" cy="336" r="17" fill="#9DE04F"/>
      <path d="M158 186 h196" fill="none" stroke-width="10"/>
      <path d="M164 176 h64 a10 10 0 0 1 10 10 v14 a30 30 0 0 1 -60 0 v-14 a10 10 0 0 1 -14 -10z" fill="#12324F" opacity="0.92"/>
      <path d="M284 176 h64 a10 10 0 0 1 10 10 v14 a30 30 0 0 1 -60 0 v-14 a10 10 0 0 1 -14 -10z" fill="#12324F" opacity="0.92"/>
    </g>
  </g>
</svg>
